<?xml version="1.0" encoding="iso-8859-1"?>
<!-- Generator: Adobe Illustrator 13.0.0, SVG Export Plug-In . SVG Version: 6.00 Build 14948)  -->
<!DOCTYPE svg PUBLIC "-//W3C//DTD SVG 1.1//EN" "http://www.w3.org/Graphics/SVG/1.1/DTD/svg11.dtd">
<svg version="1.1" id="Layer_1" xmlns="http://www.w3.org/2000/svg" xmlns:xlink="http://www.w3.org/1999/xlink" x="0px" y="0px"
	 width="100px" height="100px" viewBox="0 0 100 100" enable-background="new 0 0 100 100" xml:space="preserve">
<g>
	<g>
		<radialGradient id="SVGID_1_" cx="47.0908" cy="61.6143" r="125.9047" gradientUnits="userSpaceOnUse">
			<stop  offset="0" style="stop-color:#5BA59B"/>
			<stop  offset="1" style="stop-color:#1C433F"/>
		</radialGradient>
		<circle fill="url(#SVGID_1_)" cx="50.057" cy="85.29" r="5.756"/>
		<radialGradient id="SVGID_2_" cx="47.0972" cy="61.6074" r="125.9181" gradientUnits="userSpaceOnUse">
			<stop  offset="0" style="stop-color:#5BA59B"/>
			<stop  offset="1" style="stop-color:#1C433F"/>
		</radialGradient>
		<path fill="url(#SVGID_2_)" d="M81.112,73.91c0,3.109-2.513,5.628-5.619,5.628c-3.099,0-5.614-2.519-5.614-5.628
			c0-3.095,2.516-5.607,5.614-5.607C78.6,68.303,81.112,70.815,81.112,73.91z"/>
		<radialGradient id="SVGID_3_" cx="47.0894" cy="61.6055" r="125.9419" gradientUnits="userSpaceOnUse">
			<stop  offset="0" style="stop-color:#5BA59B"/>
			<stop  offset="1" style="stop-color:#1C433F"/>
		</radialGradient>
		<path fill="url(#SVGID_3_)" d="M82.116,39.136c-7.767,8.004-15.304,15.8-23.657,22.746c-2.112,1.764-4.279,3.47-6.492,5.118
			c-0.547,0.403-1.091,0.806-1.674,1.216l-0.428,0.317l-0.108,0.072l-0.029,0.028h-0.014c0.058-0.028-0.147,0.079,0.125-0.058
			l-0.05,0.036l-0.223,0.137l-0.878,0.554c-1.177,0.734-2.361,1.455-3.563,2.161c-1.195,0.697-2.411,1.373-3.635,2.036l-1.857,0.979
			l-0.119,0.057l-0.054,0.036l-0.032,0.015c0.032-0.008-0.083,0.028,0.062-0.015h-0.015l-0.223,0.101
			c-0.151,0.064-0.299,0.129-0.453,0.188c-0.299,0.123-0.609,0.23-0.921,0.322c-1.245,0.396-2.574,0.605-3.926,0.57
			c-1.354-0.021-2.732-0.287-4.064-0.756c1.177,0.777,2.491,1.403,3.905,1.792c1.418,0.389,2.93,0.547,4.442,0.455
			c0.377-0.021,0.751-0.053,1.13-0.102c0.187-0.029,0.374-0.059,0.564-0.086l0.277-0.053h0.022c0.151-0.049,0.05-0.021,0.09-0.021
			l0.032-0.014l0.064-0.021l0.13-0.029l2.073-0.504c1.382-0.353,2.764-0.726,4.142-1.122c1.382-0.396,2.753-0.821,4.118-1.261
			l1.022-0.33l0.251-0.086l0.068-0.014c0.285-0.152,0.087-0.053,0.155-0.08l0.018-0.008L52.42,73.5l0.118-0.051l0.497-0.195
			c0.652-0.244,1.328-0.524,1.998-0.805c2.666-1.103,5.305-2.282,7.906-3.534c5.223-2.506,10.315-5.291,15.289-8.199
			c4.263-2.483,8.437-5.061,12.568-7.608L82.116,39.136z"/>
	</g>
	<g>
		<g>
			<radialGradient id="SVGID_4_" cx="25.3843" cy="45.7695" r="130.4304" gradientUnits="userSpaceOnUse">
				<stop  offset="0" style="stop-color:#919395"/>
				<stop  offset="0.6727" style="stop-color:#424243"/>
				<stop  offset="1" style="stop-color:#272525"/>
			</radialGradient>
			<polygon fill="url(#SVGID_4_)" points="29.886,60.874 31.405,65.402 36.188,65.452 32.345,68.295 33.78,72.852 29.886,70.073 
				25.992,72.852 27.431,68.295 23.588,65.452 28.371,65.402 			"/>
			<radialGradient id="SVGID_5_" cx="25.3838" cy="45.7637" r="130.4686" gradientUnits="userSpaceOnUse">
				<stop  offset="0" style="stop-color:#919395"/>
				<stop  offset="0.6727" style="stop-color:#424243"/>
				<stop  offset="1" style="stop-color:#272525"/>
			</radialGradient>
			<polygon fill="url(#SVGID_5_)" points="43.196,55.051 44.574,59.168 48.918,59.204 45.427,61.796 46.734,65.935 43.196,63.408 
				39.658,65.935 40.968,61.796 37.474,59.204 41.817,59.168 			"/>
			<radialGradient id="SVGID_6_" cx="25.3779" cy="45.7666" r="130.477" gradientUnits="userSpaceOnUse">
				<stop  offset="0" style="stop-color:#919395"/>
				<stop  offset="0.6727" style="stop-color:#424243"/>
				<stop  offset="1" style="stop-color:#272525"/>
			</radialGradient>
			<polygon fill="url(#SVGID_6_)" points="55.813,48.285 57.056,51.984 60.957,52.021 57.818,54.346 58.996,58.067 55.813,55.8 
				52.636,58.067 53.81,54.346 50.667,52.021 54.576,51.984 			"/>
			<radialGradient id="SVGID_7_" cx="25.396" cy="45.7637" r="130.4222" gradientUnits="userSpaceOnUse">
				<stop  offset="0" style="stop-color:#919395"/>
				<stop  offset="0.6727" style="stop-color:#424243"/>
				<stop  offset="1" style="stop-color:#272525"/>
			</radialGradient>
			<polygon fill="url(#SVGID_7_)" points="66.319,41.065 67.421,44.354 70.884,44.383 68.101,46.442 69.138,49.752 66.319,47.745 
				63.498,49.752 64.538,46.442 61.752,44.383 65.222,44.354 			"/>
			<radialGradient id="SVGID_8_" cx="25.396" cy="45.7676" r="130.4482" gradientUnits="userSpaceOnUse">
				<stop  offset="0" style="stop-color:#919395"/>
				<stop  offset="0.6727" style="stop-color:#424243"/>
				<stop  offset="1" style="stop-color:#272525"/>
			</radialGradient>
			<polygon fill="url(#SVGID_8_)" points="73.287,33.888 74.248,36.761 77.282,36.789 74.839,38.596 75.753,41.483 73.287,39.726 
				70.818,41.483 71.736,38.596 69.304,36.789 72.326,36.761 			"/>
		</g>
		<radialGradient id="SVGID_9_" cx="25.3823" cy="45.7656" r="130.4607" gradientUnits="userSpaceOnUse">
			<stop  offset="0" style="stop-color:#919395"/>
			<stop  offset="0.6727" style="stop-color:#424243"/>
			<stop  offset="1" style="stop-color:#272525"/>
		</radialGradient>
		<path fill="url(#SVGID_9_)" d="M66.564,14.137c-5.496,6.053-11.089,11.992-16.872,17.715
			c-5.899,5.816-11.978,11.466-18.438,16.418c-3.232,2.462-6.58,4.766-10.049,6.471c-1.728,0.856-3.502,1.548-5.183,1.843
			c-0.834,0.151-1.641,0.194-2.354,0.102c-0.715-0.102-1.332-0.332-1.886-0.742c-1.123-0.799-1.911-2.505-2.282-4.383
			c-0.385-1.887-0.439-3.938-0.331-5.982c0.111-2.059,0.389-4.131,0.785-6.183c0.403-2.052,0.896-4.095,1.608-6.089
			c-1.033,1.85-1.864,3.814-2.613,5.809c-0.741,2-1.374,4.052-1.846,6.169c-0.461,2.123-0.784,4.312-0.713,6.622
			c0.044,1.152,0.191,2.339,0.555,3.549c0.364,1.202,0.976,2.44,1.943,3.49c0.965,1.059,2.268,1.843,3.592,2.275
			c1.328,0.432,2.66,0.576,3.919,0.569c2.527-0.029,4.837-0.555,7.04-1.196c4.398-1.338,8.4-3.246,12.283-5.275
			c7.742-4.132,14.95-8.912,21.99-13.871c6.011-4.248,11.87-8.667,17.632-13.18L66.564,14.137z"/>
	</g>
</g>
</svg>
